%TF.GenerationSoftware,KiCad,Pcbnew,8.0.6*%
%TF.CreationDate,2025-05-05T14:00:36-04:00*%
%TF.ProjectId,blinkingLight,626c696e-6b69-46e6-974c-696768742e6b,rev?*%
%TF.SameCoordinates,Original*%
%TF.FileFunction,Legend,Top*%
%TF.FilePolarity,Positive*%
%FSLAX46Y46*%
G04 Gerber Fmt 4.6, Leading zero omitted, Abs format (unit mm)*
G04 Created by KiCad (PCBNEW 8.0.6) date 2025-05-05 14:00:36*
%MOMM*%
%LPD*%
G01*
G04 APERTURE LIST*
%ADD10C,0.150000*%
%ADD11C,0.120000*%
G04 APERTURE END LIST*
D10*
X109033333Y-120949580D02*
X108985714Y-120997200D01*
X108985714Y-120997200D02*
X108842857Y-121044819D01*
X108842857Y-121044819D02*
X108747619Y-121044819D01*
X108747619Y-121044819D02*
X108604762Y-120997200D01*
X108604762Y-120997200D02*
X108509524Y-120901961D01*
X108509524Y-120901961D02*
X108461905Y-120806723D01*
X108461905Y-120806723D02*
X108414286Y-120616247D01*
X108414286Y-120616247D02*
X108414286Y-120473390D01*
X108414286Y-120473390D02*
X108461905Y-120282914D01*
X108461905Y-120282914D02*
X108509524Y-120187676D01*
X108509524Y-120187676D02*
X108604762Y-120092438D01*
X108604762Y-120092438D02*
X108747619Y-120044819D01*
X108747619Y-120044819D02*
X108842857Y-120044819D01*
X108842857Y-120044819D02*
X108985714Y-120092438D01*
X108985714Y-120092438D02*
X109033333Y-120140057D01*
X109985714Y-121044819D02*
X109414286Y-121044819D01*
X109700000Y-121044819D02*
X109700000Y-120044819D01*
X109700000Y-120044819D02*
X109604762Y-120187676D01*
X109604762Y-120187676D02*
X109509524Y-120282914D01*
X109509524Y-120282914D02*
X109414286Y-120330533D01*
X143314819Y-89066666D02*
X142838628Y-89399999D01*
X143314819Y-89638094D02*
X142314819Y-89638094D01*
X142314819Y-89638094D02*
X142314819Y-89257142D01*
X142314819Y-89257142D02*
X142362438Y-89161904D01*
X142362438Y-89161904D02*
X142410057Y-89114285D01*
X142410057Y-89114285D02*
X142505295Y-89066666D01*
X142505295Y-89066666D02*
X142648152Y-89066666D01*
X142648152Y-89066666D02*
X142743390Y-89114285D01*
X142743390Y-89114285D02*
X142791009Y-89161904D01*
X142791009Y-89161904D02*
X142838628Y-89257142D01*
X142838628Y-89257142D02*
X142838628Y-89638094D01*
X142648152Y-88209523D02*
X143314819Y-88209523D01*
X142267200Y-88447618D02*
X142981485Y-88685713D01*
X142981485Y-88685713D02*
X142981485Y-88066666D01*
X110294819Y-89066666D02*
X109818628Y-89399999D01*
X110294819Y-89638094D02*
X109294819Y-89638094D01*
X109294819Y-89638094D02*
X109294819Y-89257142D01*
X109294819Y-89257142D02*
X109342438Y-89161904D01*
X109342438Y-89161904D02*
X109390057Y-89114285D01*
X109390057Y-89114285D02*
X109485295Y-89066666D01*
X109485295Y-89066666D02*
X109628152Y-89066666D01*
X109628152Y-89066666D02*
X109723390Y-89114285D01*
X109723390Y-89114285D02*
X109771009Y-89161904D01*
X109771009Y-89161904D02*
X109818628Y-89257142D01*
X109818628Y-89257142D02*
X109818628Y-89638094D01*
X110294819Y-88114285D02*
X110294819Y-88685713D01*
X110294819Y-88399999D02*
X109294819Y-88399999D01*
X109294819Y-88399999D02*
X109437676Y-88495237D01*
X109437676Y-88495237D02*
X109532914Y-88590475D01*
X109532914Y-88590475D02*
X109580533Y-88685713D01*
X117914819Y-89066666D02*
X117438628Y-89399999D01*
X117914819Y-89638094D02*
X116914819Y-89638094D01*
X116914819Y-89638094D02*
X116914819Y-89257142D01*
X116914819Y-89257142D02*
X116962438Y-89161904D01*
X116962438Y-89161904D02*
X117010057Y-89114285D01*
X117010057Y-89114285D02*
X117105295Y-89066666D01*
X117105295Y-89066666D02*
X117248152Y-89066666D01*
X117248152Y-89066666D02*
X117343390Y-89114285D01*
X117343390Y-89114285D02*
X117391009Y-89161904D01*
X117391009Y-89161904D02*
X117438628Y-89257142D01*
X117438628Y-89257142D02*
X117438628Y-89638094D01*
X117010057Y-88685713D02*
X116962438Y-88638094D01*
X116962438Y-88638094D02*
X116914819Y-88542856D01*
X116914819Y-88542856D02*
X116914819Y-88304761D01*
X116914819Y-88304761D02*
X116962438Y-88209523D01*
X116962438Y-88209523D02*
X117010057Y-88161904D01*
X117010057Y-88161904D02*
X117105295Y-88114285D01*
X117105295Y-88114285D02*
X117200533Y-88114285D01*
X117200533Y-88114285D02*
X117343390Y-88161904D01*
X117343390Y-88161904D02*
X117914819Y-88733332D01*
X117914819Y-88733332D02*
X117914819Y-88114285D01*
X125534819Y-89066666D02*
X125058628Y-89399999D01*
X125534819Y-89638094D02*
X124534819Y-89638094D01*
X124534819Y-89638094D02*
X124534819Y-89257142D01*
X124534819Y-89257142D02*
X124582438Y-89161904D01*
X124582438Y-89161904D02*
X124630057Y-89114285D01*
X124630057Y-89114285D02*
X124725295Y-89066666D01*
X124725295Y-89066666D02*
X124868152Y-89066666D01*
X124868152Y-89066666D02*
X124963390Y-89114285D01*
X124963390Y-89114285D02*
X125011009Y-89161904D01*
X125011009Y-89161904D02*
X125058628Y-89257142D01*
X125058628Y-89257142D02*
X125058628Y-89638094D01*
X124534819Y-88733332D02*
X124534819Y-88114285D01*
X124534819Y-88114285D02*
X124915771Y-88447618D01*
X124915771Y-88447618D02*
X124915771Y-88304761D01*
X124915771Y-88304761D02*
X124963390Y-88209523D01*
X124963390Y-88209523D02*
X125011009Y-88161904D01*
X125011009Y-88161904D02*
X125106247Y-88114285D01*
X125106247Y-88114285D02*
X125344342Y-88114285D01*
X125344342Y-88114285D02*
X125439580Y-88161904D01*
X125439580Y-88161904D02*
X125487200Y-88209523D01*
X125487200Y-88209523D02*
X125534819Y-88304761D01*
X125534819Y-88304761D02*
X125534819Y-88590475D01*
X125534819Y-88590475D02*
X125487200Y-88685713D01*
X125487200Y-88685713D02*
X125439580Y-88733332D01*
X122354819Y-101433333D02*
X123069104Y-101433333D01*
X123069104Y-101433333D02*
X123211961Y-101480952D01*
X123211961Y-101480952D02*
X123307200Y-101576190D01*
X123307200Y-101576190D02*
X123354819Y-101719047D01*
X123354819Y-101719047D02*
X123354819Y-101814285D01*
X123354819Y-100433333D02*
X123354819Y-101004761D01*
X123354819Y-100719047D02*
X122354819Y-100719047D01*
X122354819Y-100719047D02*
X122497676Y-100814285D01*
X122497676Y-100814285D02*
X122592914Y-100909523D01*
X122592914Y-100909523D02*
X122640533Y-101004761D01*
X124968095Y-106344819D02*
X124968095Y-107154342D01*
X124968095Y-107154342D02*
X125015714Y-107249580D01*
X125015714Y-107249580D02*
X125063333Y-107297200D01*
X125063333Y-107297200D02*
X125158571Y-107344819D01*
X125158571Y-107344819D02*
X125349047Y-107344819D01*
X125349047Y-107344819D02*
X125444285Y-107297200D01*
X125444285Y-107297200D02*
X125491904Y-107249580D01*
X125491904Y-107249580D02*
X125539523Y-107154342D01*
X125539523Y-107154342D02*
X125539523Y-106344819D01*
X126539523Y-107344819D02*
X125968095Y-107344819D01*
X126253809Y-107344819D02*
X126253809Y-106344819D01*
X126253809Y-106344819D02*
X126158571Y-106487676D01*
X126158571Y-106487676D02*
X126063333Y-106582914D01*
X126063333Y-106582914D02*
X125968095Y-106630533D01*
X142556666Y-117034819D02*
X142556666Y-117749104D01*
X142556666Y-117749104D02*
X142509047Y-117891961D01*
X142509047Y-117891961D02*
X142413809Y-117987200D01*
X142413809Y-117987200D02*
X142270952Y-118034819D01*
X142270952Y-118034819D02*
X142175714Y-118034819D01*
X142985238Y-117130057D02*
X143032857Y-117082438D01*
X143032857Y-117082438D02*
X143128095Y-117034819D01*
X143128095Y-117034819D02*
X143366190Y-117034819D01*
X143366190Y-117034819D02*
X143461428Y-117082438D01*
X143461428Y-117082438D02*
X143509047Y-117130057D01*
X143509047Y-117130057D02*
X143556666Y-117225295D01*
X143556666Y-117225295D02*
X143556666Y-117320533D01*
X143556666Y-117320533D02*
X143509047Y-117463390D01*
X143509047Y-117463390D02*
X142937619Y-118034819D01*
X142937619Y-118034819D02*
X143556666Y-118034819D01*
X113581905Y-99799819D02*
X113581905Y-98799819D01*
X113581905Y-98799819D02*
X113820000Y-98799819D01*
X113820000Y-98799819D02*
X113962857Y-98847438D01*
X113962857Y-98847438D02*
X114058095Y-98942676D01*
X114058095Y-98942676D02*
X114105714Y-99037914D01*
X114105714Y-99037914D02*
X114153333Y-99228390D01*
X114153333Y-99228390D02*
X114153333Y-99371247D01*
X114153333Y-99371247D02*
X114105714Y-99561723D01*
X114105714Y-99561723D02*
X114058095Y-99656961D01*
X114058095Y-99656961D02*
X113962857Y-99752200D01*
X113962857Y-99752200D02*
X113820000Y-99799819D01*
X113820000Y-99799819D02*
X113581905Y-99799819D01*
X115105714Y-99799819D02*
X114534286Y-99799819D01*
X114820000Y-99799819D02*
X114820000Y-98799819D01*
X114820000Y-98799819D02*
X114724762Y-98942676D01*
X114724762Y-98942676D02*
X114629524Y-99037914D01*
X114629524Y-99037914D02*
X114534286Y-99085533D01*
X138981905Y-99799819D02*
X138981905Y-98799819D01*
X138981905Y-98799819D02*
X139220000Y-98799819D01*
X139220000Y-98799819D02*
X139362857Y-98847438D01*
X139362857Y-98847438D02*
X139458095Y-98942676D01*
X139458095Y-98942676D02*
X139505714Y-99037914D01*
X139505714Y-99037914D02*
X139553333Y-99228390D01*
X139553333Y-99228390D02*
X139553333Y-99371247D01*
X139553333Y-99371247D02*
X139505714Y-99561723D01*
X139505714Y-99561723D02*
X139458095Y-99656961D01*
X139458095Y-99656961D02*
X139362857Y-99752200D01*
X139362857Y-99752200D02*
X139220000Y-99799819D01*
X139220000Y-99799819D02*
X138981905Y-99799819D01*
X139934286Y-98895057D02*
X139981905Y-98847438D01*
X139981905Y-98847438D02*
X140077143Y-98799819D01*
X140077143Y-98799819D02*
X140315238Y-98799819D01*
X140315238Y-98799819D02*
X140410476Y-98847438D01*
X140410476Y-98847438D02*
X140458095Y-98895057D01*
X140458095Y-98895057D02*
X140505714Y-98990295D01*
X140505714Y-98990295D02*
X140505714Y-99085533D01*
X140505714Y-99085533D02*
X140458095Y-99228390D01*
X140458095Y-99228390D02*
X139886667Y-99799819D01*
X139886667Y-99799819D02*
X140505714Y-99799819D01*
X135794761Y-85890057D02*
X135699523Y-85842438D01*
X135699523Y-85842438D02*
X135604285Y-85747200D01*
X135604285Y-85747200D02*
X135461428Y-85604342D01*
X135461428Y-85604342D02*
X135366190Y-85556723D01*
X135366190Y-85556723D02*
X135270952Y-85556723D01*
X135318571Y-85794819D02*
X135223333Y-85747200D01*
X135223333Y-85747200D02*
X135128095Y-85651961D01*
X135128095Y-85651961D02*
X135080476Y-85461485D01*
X135080476Y-85461485D02*
X135080476Y-85128152D01*
X135080476Y-85128152D02*
X135128095Y-84937676D01*
X135128095Y-84937676D02*
X135223333Y-84842438D01*
X135223333Y-84842438D02*
X135318571Y-84794819D01*
X135318571Y-84794819D02*
X135509047Y-84794819D01*
X135509047Y-84794819D02*
X135604285Y-84842438D01*
X135604285Y-84842438D02*
X135699523Y-84937676D01*
X135699523Y-84937676D02*
X135747142Y-85128152D01*
X135747142Y-85128152D02*
X135747142Y-85461485D01*
X135747142Y-85461485D02*
X135699523Y-85651961D01*
X135699523Y-85651961D02*
X135604285Y-85747200D01*
X135604285Y-85747200D02*
X135509047Y-85794819D01*
X135509047Y-85794819D02*
X135318571Y-85794819D01*
X136699523Y-85794819D02*
X136128095Y-85794819D01*
X136413809Y-85794819D02*
X136413809Y-84794819D01*
X136413809Y-84794819D02*
X136318571Y-84937676D01*
X136318571Y-84937676D02*
X136223333Y-85032914D01*
X136223333Y-85032914D02*
X136128095Y-85080533D01*
D11*
%TO.C,C1*%
X112004775Y-118315000D02*
X111504775Y-118315000D01*
X111754775Y-118565000D02*
X111754775Y-118065000D01*
X109200000Y-119420000D02*
X109200000Y-114260000D01*
X109160000Y-119420000D02*
X109160000Y-114260000D01*
X109120000Y-119419000D02*
X109120000Y-114261000D01*
X109080000Y-119418000D02*
X109080000Y-114262000D01*
X109040000Y-119416000D02*
X109040000Y-114264000D01*
X109000000Y-119413000D02*
X109000000Y-114267000D01*
X108960000Y-119409000D02*
X108960000Y-117880000D01*
X108960000Y-115800000D02*
X108960000Y-114271000D01*
X108920000Y-119405000D02*
X108920000Y-117880000D01*
X108920000Y-115800000D02*
X108920000Y-114275000D01*
X108880000Y-119401000D02*
X108880000Y-117880000D01*
X108880000Y-115800000D02*
X108880000Y-114279000D01*
X108840000Y-119396000D02*
X108840000Y-117880000D01*
X108840000Y-115800000D02*
X108840000Y-114284000D01*
X108800000Y-119390000D02*
X108800000Y-117880000D01*
X108800000Y-115800000D02*
X108800000Y-114290000D01*
X108760000Y-119383000D02*
X108760000Y-117880000D01*
X108760000Y-115800000D02*
X108760000Y-114297000D01*
X108720000Y-119376000D02*
X108720000Y-117880000D01*
X108720000Y-115800000D02*
X108720000Y-114304000D01*
X108680000Y-119368000D02*
X108680000Y-117880000D01*
X108680000Y-115800000D02*
X108680000Y-114312000D01*
X108640000Y-119360000D02*
X108640000Y-117880000D01*
X108640000Y-115800000D02*
X108640000Y-114320000D01*
X108600000Y-119351000D02*
X108600000Y-117880000D01*
X108600000Y-115800000D02*
X108600000Y-114329000D01*
X108560000Y-119341000D02*
X108560000Y-117880000D01*
X108560000Y-115800000D02*
X108560000Y-114339000D01*
X108520000Y-119331000D02*
X108520000Y-117880000D01*
X108520000Y-115800000D02*
X108520000Y-114349000D01*
X108479000Y-119320000D02*
X108479000Y-117880000D01*
X108479000Y-115800000D02*
X108479000Y-114360000D01*
X108439000Y-119308000D02*
X108439000Y-117880000D01*
X108439000Y-115800000D02*
X108439000Y-114372000D01*
X108399000Y-119295000D02*
X108399000Y-117880000D01*
X108399000Y-115800000D02*
X108399000Y-114385000D01*
X108359000Y-119282000D02*
X108359000Y-117880000D01*
X108359000Y-115800000D02*
X108359000Y-114398000D01*
X108319000Y-119268000D02*
X108319000Y-117880000D01*
X108319000Y-115800000D02*
X108319000Y-114412000D01*
X108279000Y-119254000D02*
X108279000Y-117880000D01*
X108279000Y-115800000D02*
X108279000Y-114426000D01*
X108239000Y-119238000D02*
X108239000Y-117880000D01*
X108239000Y-115800000D02*
X108239000Y-114442000D01*
X108199000Y-119222000D02*
X108199000Y-117880000D01*
X108199000Y-115800000D02*
X108199000Y-114458000D01*
X108159000Y-119205000D02*
X108159000Y-117880000D01*
X108159000Y-115800000D02*
X108159000Y-114475000D01*
X108119000Y-119188000D02*
X108119000Y-117880000D01*
X108119000Y-115800000D02*
X108119000Y-114492000D01*
X108079000Y-119169000D02*
X108079000Y-117880000D01*
X108079000Y-115800000D02*
X108079000Y-114511000D01*
X108039000Y-119150000D02*
X108039000Y-117880000D01*
X108039000Y-115800000D02*
X108039000Y-114530000D01*
X107999000Y-119130000D02*
X107999000Y-117880000D01*
X107999000Y-115800000D02*
X107999000Y-114550000D01*
X107959000Y-119108000D02*
X107959000Y-117880000D01*
X107959000Y-115800000D02*
X107959000Y-114572000D01*
X107919000Y-119087000D02*
X107919000Y-117880000D01*
X107919000Y-115800000D02*
X107919000Y-114593000D01*
X107879000Y-119064000D02*
X107879000Y-117880000D01*
X107879000Y-115800000D02*
X107879000Y-114616000D01*
X107839000Y-119040000D02*
X107839000Y-117880000D01*
X107839000Y-115800000D02*
X107839000Y-114640000D01*
X107799000Y-119015000D02*
X107799000Y-117880000D01*
X107799000Y-115800000D02*
X107799000Y-114665000D01*
X107759000Y-118989000D02*
X107759000Y-117880000D01*
X107759000Y-115800000D02*
X107759000Y-114691000D01*
X107719000Y-118962000D02*
X107719000Y-117880000D01*
X107719000Y-115800000D02*
X107719000Y-114718000D01*
X107679000Y-118935000D02*
X107679000Y-117880000D01*
X107679000Y-115800000D02*
X107679000Y-114745000D01*
X107639000Y-118905000D02*
X107639000Y-117880000D01*
X107639000Y-115800000D02*
X107639000Y-114775000D01*
X107599000Y-118875000D02*
X107599000Y-117880000D01*
X107599000Y-115800000D02*
X107599000Y-114805000D01*
X107559000Y-118844000D02*
X107559000Y-117880000D01*
X107559000Y-115800000D02*
X107559000Y-114836000D01*
X107519000Y-118811000D02*
X107519000Y-117880000D01*
X107519000Y-115800000D02*
X107519000Y-114869000D01*
X107479000Y-118777000D02*
X107479000Y-117880000D01*
X107479000Y-115800000D02*
X107479000Y-114903000D01*
X107439000Y-118741000D02*
X107439000Y-117880000D01*
X107439000Y-115800000D02*
X107439000Y-114939000D01*
X107399000Y-118704000D02*
X107399000Y-117880000D01*
X107399000Y-115800000D02*
X107399000Y-114976000D01*
X107359000Y-118666000D02*
X107359000Y-117880000D01*
X107359000Y-115800000D02*
X107359000Y-115014000D01*
X107319000Y-118625000D02*
X107319000Y-117880000D01*
X107319000Y-115800000D02*
X107319000Y-115055000D01*
X107279000Y-118583000D02*
X107279000Y-117880000D01*
X107279000Y-115800000D02*
X107279000Y-115097000D01*
X107239000Y-118539000D02*
X107239000Y-117880000D01*
X107239000Y-115800000D02*
X107239000Y-115141000D01*
X107199000Y-118493000D02*
X107199000Y-117880000D01*
X107199000Y-115800000D02*
X107199000Y-115187000D01*
X107159000Y-118445000D02*
X107159000Y-117880000D01*
X107159000Y-115800000D02*
X107159000Y-115235000D01*
X107119000Y-118394000D02*
X107119000Y-117880000D01*
X107119000Y-115800000D02*
X107119000Y-115286000D01*
X107079000Y-118340000D02*
X107079000Y-117880000D01*
X107079000Y-115800000D02*
X107079000Y-115340000D01*
X107039000Y-118283000D02*
X107039000Y-117880000D01*
X107039000Y-115800000D02*
X107039000Y-115397000D01*
X106999000Y-118223000D02*
X106999000Y-117880000D01*
X106999000Y-115800000D02*
X106999000Y-115457000D01*
X106959000Y-118159000D02*
X106959000Y-117880000D01*
X106959000Y-115800000D02*
X106959000Y-115521000D01*
X106919000Y-118091000D02*
X106919000Y-117880000D01*
X106919000Y-115800000D02*
X106919000Y-115589000D01*
X106879000Y-118018000D02*
X106879000Y-115662000D01*
X106839000Y-117938000D02*
X106839000Y-115742000D01*
X106799000Y-117851000D02*
X106799000Y-115829000D01*
X106759000Y-117755000D02*
X106759000Y-115925000D01*
X106719000Y-117645000D02*
X106719000Y-116035000D01*
X106679000Y-117517000D02*
X106679000Y-116163000D01*
X106639000Y-117358000D02*
X106639000Y-116322000D01*
X106599000Y-117124000D02*
X106599000Y-116556000D01*
X111820000Y-116840000D02*
G75*
G02*
X106580000Y-116840000I-2620000J0D01*
G01*
X106580000Y-116840000D02*
G75*
G02*
X111820000Y-116840000I2620000J0D01*
G01*
%TO.C,R4*%
X144780000Y-91770000D02*
X144780000Y-90820000D01*
X143860000Y-90820000D02*
X145700000Y-90820000D01*
X145700000Y-90820000D02*
X145700000Y-86980000D01*
X143860000Y-86980000D02*
X143860000Y-90820000D01*
X145700000Y-86980000D02*
X143860000Y-86980000D01*
X144780000Y-86030000D02*
X144780000Y-86980000D01*
%TO.C,R1*%
X111760000Y-91770000D02*
X111760000Y-90820000D01*
X110840000Y-90820000D02*
X112680000Y-90820000D01*
X112680000Y-90820000D02*
X112680000Y-86980000D01*
X110840000Y-86980000D02*
X110840000Y-90820000D01*
X112680000Y-86980000D02*
X110840000Y-86980000D01*
X111760000Y-86030000D02*
X111760000Y-86980000D01*
%TO.C,R2*%
X119380000Y-91770000D02*
X119380000Y-90820000D01*
X118460000Y-90820000D02*
X120300000Y-90820000D01*
X120300000Y-90820000D02*
X120300000Y-86980000D01*
X118460000Y-86980000D02*
X118460000Y-90820000D01*
X120300000Y-86980000D02*
X118460000Y-86980000D01*
X119380000Y-86030000D02*
X119380000Y-86980000D01*
%TO.C,R3*%
X127000000Y-86030000D02*
X127000000Y-86980000D01*
X127920000Y-86980000D02*
X126080000Y-86980000D01*
X126080000Y-86980000D02*
X126080000Y-90820000D01*
X127920000Y-90820000D02*
X127920000Y-86980000D01*
X126080000Y-90820000D02*
X127920000Y-90820000D01*
X127000000Y-91770000D02*
X127000000Y-90820000D01*
%TO.C,J1*%
X123775000Y-102310000D02*
X123775000Y-101600000D01*
X124460000Y-102310000D02*
X123775000Y-102310000D01*
X125145000Y-102310000D02*
X127020000Y-102310000D01*
X125145000Y-102310000D02*
X125145000Y-102208276D01*
X127020000Y-102310000D02*
X127020000Y-101994493D01*
X127020000Y-101205507D02*
X127020000Y-100994493D01*
X123900000Y-100205507D02*
X123900000Y-99890000D01*
X127020000Y-100205507D02*
X127020000Y-99890000D01*
X123900000Y-99890000D02*
X127020000Y-99890000D01*
%TO.C,U1*%
X123080000Y-107890000D02*
X123080000Y-115630000D01*
X123080000Y-115630000D02*
X128380000Y-115630000D01*
X124730000Y-107890000D02*
X123080000Y-107890000D01*
X128380000Y-107890000D02*
X126730000Y-107890000D01*
X128380000Y-115630000D02*
X128380000Y-107890000D01*
X126730000Y-107890000D02*
G75*
G02*
X124730000Y-107890000I-1000000J0D01*
G01*
%TO.C,J2*%
X141490000Y-118380000D02*
X144290000Y-118380000D01*
X141490000Y-120380000D02*
X141490000Y-118380000D01*
X144290000Y-118380000D02*
X144290000Y-120380000D01*
X144290000Y-120380000D02*
X141490000Y-120380000D01*
%TO.C,D1*%
X112760000Y-107595000D02*
X112760000Y-111455000D01*
X112760000Y-107595000D02*
X115880000Y-107595000D01*
X113050000Y-102385000D02*
X113050000Y-102385000D01*
X113050000Y-102385000D02*
X113050000Y-107595000D01*
X113050000Y-107595000D02*
X113050000Y-102385000D01*
X113050000Y-107595000D02*
X113050000Y-107595000D01*
X115590000Y-102385000D02*
X115590000Y-102385000D01*
X115590000Y-102385000D02*
X115590000Y-107595000D01*
X115590000Y-107595000D02*
X115590000Y-102385000D01*
X115590000Y-107595000D02*
X115590000Y-107595000D01*
X115880000Y-107595000D02*
X115880000Y-111455000D01*
X115880000Y-107595000D02*
X116280000Y-107595000D01*
X115880000Y-108715000D02*
X115880000Y-107595000D01*
X116280000Y-107595000D02*
X116280000Y-108715000D01*
X116280000Y-108715000D02*
X115880000Y-108715000D01*
X115880000Y-111455000D02*
G75*
G02*
X112760000Y-111455000I-1560000J0D01*
G01*
%TO.C,D2*%
X138160000Y-107595000D02*
X138160000Y-111455000D01*
X138160000Y-107595000D02*
X141280000Y-107595000D01*
X138450000Y-102385000D02*
X138450000Y-102385000D01*
X138450000Y-102385000D02*
X138450000Y-107595000D01*
X138450000Y-107595000D02*
X138450000Y-102385000D01*
X138450000Y-107595000D02*
X138450000Y-107595000D01*
X140990000Y-102385000D02*
X140990000Y-102385000D01*
X140990000Y-102385000D02*
X140990000Y-107595000D01*
X140990000Y-107595000D02*
X140990000Y-102385000D01*
X140990000Y-107595000D02*
X140990000Y-107595000D01*
X141280000Y-107595000D02*
X141280000Y-111455000D01*
X141280000Y-107595000D02*
X141680000Y-107595000D01*
X141280000Y-108715000D02*
X141280000Y-107595000D01*
X141680000Y-107595000D02*
X141680000Y-108715000D01*
X141680000Y-108715000D02*
X141280000Y-108715000D01*
X141280000Y-111455000D02*
G75*
G02*
X138160000Y-111455000I-1560000J0D01*
G01*
%TO.C,Q1*%
X134090000Y-90750000D02*
X137690000Y-90750000D01*
X134051522Y-90738478D02*
G75*
G02*
X135890000Y-86299999I1838478J1838478D01*
G01*
X135890000Y-86300000D02*
G75*
G02*
X137728478Y-90738478I0J-2600000D01*
G01*
%TD*%
M02*
