%TF.GenerationSoftware,KiCad,Pcbnew,8.0.6*%
%TF.CreationDate,2025-05-05T14:00:36-04:00*%
%TF.ProjectId,blinkingLight,626c696e-6b69-46e6-974c-696768742e6b,rev?*%
%TF.SameCoordinates,Original*%
%TF.FileFunction,Copper,L2,Bot*%
%TF.FilePolarity,Positive*%
%FSLAX46Y46*%
G04 Gerber Fmt 4.6, Leading zero omitted, Abs format (unit mm)*
G04 Created by KiCad (PCBNEW 8.0.6) date 2025-05-05 14:00:36*
%MOMM*%
%LPD*%
G01*
G04 APERTURE LIST*
%TA.AperFunction,ComponentPad*%
%ADD10R,1.600000X1.600000*%
%TD*%
%TA.AperFunction,ComponentPad*%
%ADD11C,1.600000*%
%TD*%
%TA.AperFunction,ComponentPad*%
%ADD12C,1.400000*%
%TD*%
%TA.AperFunction,ComponentPad*%
%ADD13O,1.400000X1.400000*%
%TD*%
%TA.AperFunction,ComponentPad*%
%ADD14R,0.850000X0.850000*%
%TD*%
%TA.AperFunction,ComponentPad*%
%ADD15O,0.850000X0.850000*%
%TD*%
%TA.AperFunction,ComponentPad*%
%ADD16O,1.600000X1.600000*%
%TD*%
%TA.AperFunction,ComponentPad*%
%ADD17R,1.800000X1.800000*%
%TD*%
%TA.AperFunction,ComponentPad*%
%ADD18C,1.800000*%
%TD*%
%TA.AperFunction,ComponentPad*%
%ADD19R,1.050000X1.500000*%
%TD*%
%TA.AperFunction,ComponentPad*%
%ADD20O,1.050000X1.500000*%
%TD*%
%TA.AperFunction,ViaPad*%
%ADD21C,0.600000*%
%TD*%
%TA.AperFunction,Conductor*%
%ADD22C,0.200000*%
%TD*%
G04 APERTURE END LIST*
D10*
%TO.P,C1,1*%
%TO.N,Net-(U1-THR)*%
X110450000Y-116840000D03*
D11*
%TO.P,C1,2*%
%TO.N,GND*%
X107950000Y-116840000D03*
%TD*%
D12*
%TO.P,R4,1*%
%TO.N,Net-(D1-A)*%
X144780000Y-92710000D03*
D13*
%TO.P,R4,2*%
%TO.N,Net-(Q1-E)*%
X144780000Y-85090000D03*
%TD*%
D12*
%TO.P,R1,1*%
%TO.N,Net-(J1-Pin_1)*%
X111760000Y-92710000D03*
D13*
%TO.P,R1,2*%
%TO.N,Net-(Q1-B)*%
X111760000Y-85090000D03*
%TD*%
D12*
%TO.P,R2,1*%
%TO.N,Net-(J1-Pin_3)*%
X119380000Y-92710000D03*
D13*
%TO.P,R2,2*%
%TO.N,Net-(Q1-B)*%
X119380000Y-85090000D03*
%TD*%
%TO.P,R3,2*%
%TO.N,Net-(Q1-B)*%
X127000000Y-85090000D03*
D12*
%TO.P,R3,1*%
%TO.N,Net-(J1-Pin_5)*%
X127000000Y-92710000D03*
%TD*%
D14*
%TO.P,J1,1,Pin_1*%
%TO.N,Net-(J1-Pin_1)*%
X124460000Y-101600000D03*
D15*
%TO.P,J1,2,Pin_2*%
%TO.N,Net-(J1-Pin_2)*%
X124460000Y-100600000D03*
%TO.P,J1,3,Pin_3*%
%TO.N,Net-(J1-Pin_3)*%
X125460000Y-101600000D03*
%TO.P,J1,4,Pin_4*%
%TO.N,Net-(J1-Pin_2)*%
X125460000Y-100600000D03*
%TO.P,J1,5,Pin_5*%
%TO.N,Net-(J1-Pin_5)*%
X126460000Y-101600000D03*
%TO.P,J1,6,Pin_6*%
%TO.N,Net-(J1-Pin_2)*%
X126460000Y-100600000D03*
%TD*%
D10*
%TO.P,U1,1,GND*%
%TO.N,GND*%
X121920000Y-109220000D03*
D16*
%TO.P,U1,2,TR*%
%TO.N,Net-(Q1-B)*%
X121920000Y-111760000D03*
%TO.P,U1,3,Q*%
%TO.N,Net-(J1-Pin_2)*%
X121920000Y-114300000D03*
%TO.P,U1,4,R*%
%TO.N,+9V*%
X129540000Y-114300000D03*
%TO.P,U1,5,CV*%
%TO.N,unconnected-(U1-CV-Pad5)*%
X129540000Y-111760000D03*
%TO.P,U1,6,THR*%
%TO.N,Net-(U1-THR)*%
X129540000Y-109220000D03*
%TD*%
D17*
%TO.P,D1,1,K*%
%TO.N,GND*%
X113050000Y-101305000D03*
D18*
%TO.P,D1,2,A*%
%TO.N,Net-(D1-A)*%
X115590000Y-101305000D03*
%TD*%
D17*
%TO.P,D2,1,K*%
%TO.N,GND*%
X138450000Y-101305000D03*
D18*
%TO.P,D2,2,A*%
%TO.N,Net-(D1-A)*%
X140990000Y-101305000D03*
%TD*%
D19*
%TO.P,Q1,1,C*%
%TO.N,+9V*%
X134620000Y-88900000D03*
D20*
%TO.P,Q1,2,B*%
%TO.N,Net-(Q1-B)*%
X135890000Y-88900000D03*
%TO.P,Q1,3,E*%
%TO.N,Net-(Q1-E)*%
X137160000Y-88900000D03*
%TD*%
D21*
%TO.N,Net-(J1-Pin_3)*%
X119380000Y-102870000D03*
X119380000Y-101050000D03*
%TO.N,Net-(Q1-B)*%
X119380000Y-105410000D03*
X118380000Y-101000000D03*
%TO.N,GND*%
X142240000Y-116840000D03*
%TO.N,Net-(D1-A)*%
X129540000Y-104140000D03*
X134620000Y-104140000D03*
%TD*%
D22*
%TO.N,Net-(J1-Pin_3)*%
X119380000Y-101050000D02*
X119380000Y-102870000D01*
%TO.N,Net-(J1-Pin_2)*%
X127185000Y-109035000D02*
X121920000Y-114300000D01*
X127185000Y-101299695D02*
X127185000Y-109035000D01*
X124460000Y-100600000D02*
X126485305Y-100600000D01*
X126485305Y-100600000D02*
X127185000Y-101299695D01*
%TO.N,Net-(Q1-B)*%
X118380000Y-104410000D02*
X118380000Y-101000000D01*
X119380000Y-105410000D02*
X118380000Y-104410000D01*
%TO.N,GND*%
X138155000Y-101600000D02*
X137160000Y-101600000D01*
X138450000Y-101305000D02*
X138450000Y-113050000D01*
X138450000Y-113050000D02*
X142240000Y-116840000D01*
X138450000Y-101305000D02*
X138155000Y-101600000D01*
%TO.N,Net-(D1-A)*%
X134620000Y-104140000D02*
X129540000Y-104140000D01*
%TD*%
%TA.AperFunction,Conductor*%
%TO.N,GND*%
G36*
X149803039Y-78759685D02*
G01*
X149848794Y-78812489D01*
X149860000Y-78864000D01*
X149860000Y-124336000D01*
X149840315Y-124403039D01*
X149787511Y-124448794D01*
X149736000Y-124460000D01*
X104264000Y-124460000D01*
X104196961Y-124440315D01*
X104151206Y-124387511D01*
X104140000Y-124336000D01*
X104140000Y-116839997D01*
X106645034Y-116839997D01*
X106645034Y-116840002D01*
X106664858Y-117066599D01*
X106664860Y-117066610D01*
X106723730Y-117286317D01*
X106723735Y-117286331D01*
X106819863Y-117492478D01*
X106870974Y-117565472D01*
X107550000Y-116886446D01*
X107550000Y-116892661D01*
X107577259Y-116994394D01*
X107629920Y-117085606D01*
X107704394Y-117160080D01*
X107795606Y-117212741D01*
X107897339Y-117240000D01*
X107903553Y-117240000D01*
X107224526Y-117919025D01*
X107297513Y-117970132D01*
X107297521Y-117970136D01*
X107503668Y-118066264D01*
X107503682Y-118066269D01*
X107723389Y-118125139D01*
X107723400Y-118125141D01*
X107949998Y-118144966D01*
X107950002Y-118144966D01*
X108176599Y-118125141D01*
X108176610Y-118125139D01*
X108396317Y-118066269D01*
X108396331Y-118066264D01*
X108602478Y-117970136D01*
X108675471Y-117919024D01*
X107996447Y-117240000D01*
X108002661Y-117240000D01*
X108104394Y-117212741D01*
X108195606Y-117160080D01*
X108270080Y-117085606D01*
X108322741Y-116994394D01*
X108350000Y-116892661D01*
X108350000Y-116886447D01*
X109034197Y-117570644D01*
X109083192Y-117580491D01*
X109133375Y-117629106D01*
X109148049Y-117684632D01*
X109149099Y-117684576D01*
X109149146Y-117684571D01*
X109149146Y-117684573D01*
X109149324Y-117684564D01*
X109149501Y-117687876D01*
X109155908Y-117747483D01*
X109206202Y-117882328D01*
X109206206Y-117882335D01*
X109292452Y-117997544D01*
X109292455Y-117997547D01*
X109407664Y-118083793D01*
X109407671Y-118083797D01*
X109542517Y-118134091D01*
X109542516Y-118134091D01*
X109549444Y-118134835D01*
X109602127Y-118140500D01*
X111297872Y-118140499D01*
X111357483Y-118134091D01*
X111492331Y-118083796D01*
X111607546Y-117997546D01*
X111693796Y-117882331D01*
X111744091Y-117747483D01*
X111750500Y-117687873D01*
X111750499Y-115992128D01*
X111744091Y-115932517D01*
X111693796Y-115797669D01*
X111693795Y-115797668D01*
X111693793Y-115797664D01*
X111607547Y-115682455D01*
X111607544Y-115682452D01*
X111492335Y-115596206D01*
X111492328Y-115596202D01*
X111357482Y-115545908D01*
X111357483Y-115545908D01*
X111297883Y-115539501D01*
X111297881Y-115539500D01*
X111297873Y-115539500D01*
X111297864Y-115539500D01*
X109602129Y-115539500D01*
X109602123Y-115539501D01*
X109542516Y-115545908D01*
X109407671Y-115596202D01*
X109407664Y-115596206D01*
X109292455Y-115682452D01*
X109292452Y-115682455D01*
X109206206Y-115797664D01*
X109206202Y-115797671D01*
X109155908Y-115932517D01*
X109149501Y-115992116D01*
X109149501Y-115992123D01*
X109149322Y-115995452D01*
X109147847Y-115995372D01*
X109129815Y-116056784D01*
X109077011Y-116102539D01*
X109033522Y-116110029D01*
X108350000Y-116793551D01*
X108350000Y-116787339D01*
X108322741Y-116685606D01*
X108270080Y-116594394D01*
X108195606Y-116519920D01*
X108104394Y-116467259D01*
X108002661Y-116440000D01*
X107996448Y-116440000D01*
X108675472Y-115760974D01*
X108602478Y-115709863D01*
X108396331Y-115613735D01*
X108396317Y-115613730D01*
X108176610Y-115554860D01*
X108176599Y-115554858D01*
X107950002Y-115535034D01*
X107949998Y-115535034D01*
X107723400Y-115554858D01*
X107723389Y-115554860D01*
X107503682Y-115613730D01*
X107503673Y-115613734D01*
X107297516Y-115709866D01*
X107297512Y-115709868D01*
X107224526Y-115760973D01*
X107224526Y-115760974D01*
X107903553Y-116440000D01*
X107897339Y-116440000D01*
X107795606Y-116467259D01*
X107704394Y-116519920D01*
X107629920Y-116594394D01*
X107577259Y-116685606D01*
X107550000Y-116787339D01*
X107550000Y-116793552D01*
X106870974Y-116114526D01*
X106870973Y-116114526D01*
X106819868Y-116187512D01*
X106819866Y-116187516D01*
X106723734Y-116393673D01*
X106723730Y-116393682D01*
X106664860Y-116613389D01*
X106664858Y-116613400D01*
X106645034Y-116839997D01*
X104140000Y-116839997D01*
X104140000Y-111759998D01*
X120614532Y-111759998D01*
X120614532Y-111760001D01*
X120634364Y-111986686D01*
X120634366Y-111986697D01*
X120693258Y-112206488D01*
X120693261Y-112206497D01*
X120789431Y-112412732D01*
X120789432Y-112412734D01*
X120919954Y-112599141D01*
X121080858Y-112760045D01*
X121080861Y-112760047D01*
X121267266Y-112890568D01*
X121325275Y-112917618D01*
X121377714Y-112963791D01*
X121396866Y-113030984D01*
X121376650Y-113097865D01*
X121325275Y-113142382D01*
X121267267Y-113169431D01*
X121267265Y-113169432D01*
X121080858Y-113299954D01*
X120919954Y-113460858D01*
X120789432Y-113647265D01*
X120789431Y-113647267D01*
X120693261Y-113853502D01*
X120693258Y-113853511D01*
X120634366Y-114073302D01*
X120634364Y-114073313D01*
X120614532Y-114299998D01*
X120614532Y-114300001D01*
X120634364Y-114526686D01*
X120634366Y-114526697D01*
X120693258Y-114746488D01*
X120693261Y-114746497D01*
X120789431Y-114952732D01*
X120789432Y-114952734D01*
X120919954Y-115139141D01*
X121080858Y-115300045D01*
X121080861Y-115300047D01*
X121267266Y-115430568D01*
X121473504Y-115526739D01*
X121473509Y-115526740D01*
X121473511Y-115526741D01*
X121521129Y-115539500D01*
X121693308Y-115585635D01*
X121855230Y-115599801D01*
X121919998Y-115605468D01*
X121920000Y-115605468D01*
X121920002Y-115605468D01*
X121976673Y-115600509D01*
X122146692Y-115585635D01*
X122366496Y-115526739D01*
X122572734Y-115430568D01*
X122759139Y-115300047D01*
X122920047Y-115139139D01*
X123050568Y-114952734D01*
X123146739Y-114746496D01*
X123205635Y-114526692D01*
X123225468Y-114300000D01*
X123205635Y-114073308D01*
X123179847Y-113977066D01*
X123181510Y-113907217D01*
X123211939Y-113857294D01*
X127543506Y-109525728D01*
X127543511Y-109525724D01*
X127553714Y-109515520D01*
X127553716Y-109515520D01*
X127665520Y-109403716D01*
X127744577Y-109266784D01*
X127757113Y-109219998D01*
X128234532Y-109219998D01*
X128234532Y-109220001D01*
X128254364Y-109446686D01*
X128254366Y-109446697D01*
X128313258Y-109666488D01*
X128313261Y-109666497D01*
X128409431Y-109872732D01*
X128409432Y-109872734D01*
X128539954Y-110059141D01*
X128700858Y-110220045D01*
X128700861Y-110220047D01*
X128887266Y-110350568D01*
X128944357Y-110377190D01*
X128945275Y-110377618D01*
X128997714Y-110423791D01*
X129016866Y-110490984D01*
X128996650Y-110557865D01*
X128945275Y-110602382D01*
X128887267Y-110629431D01*
X128887265Y-110629432D01*
X128700858Y-110759954D01*
X128539954Y-110920858D01*
X128409432Y-111107265D01*
X128409431Y-111107267D01*
X128313261Y-111313502D01*
X128313258Y-111313511D01*
X128254366Y-111533302D01*
X128254364Y-111533313D01*
X128234532Y-111759998D01*
X128234532Y-111760001D01*
X128254364Y-111986686D01*
X128254366Y-111986697D01*
X128313258Y-112206488D01*
X128313261Y-112206497D01*
X128409431Y-112412732D01*
X128409432Y-112412734D01*
X128539954Y-112599141D01*
X128700858Y-112760045D01*
X128700861Y-112760047D01*
X128887266Y-112890568D01*
X128945275Y-112917618D01*
X128997714Y-112963791D01*
X129016866Y-113030984D01*
X128996650Y-113097865D01*
X128945275Y-113142382D01*
X128887267Y-113169431D01*
X128887265Y-113169432D01*
X128700858Y-113299954D01*
X128539954Y-113460858D01*
X128409432Y-113647265D01*
X128409431Y-113647267D01*
X128313261Y-113853502D01*
X128313258Y-113853511D01*
X128254366Y-114073302D01*
X128254364Y-114073313D01*
X128234532Y-114299998D01*
X128234532Y-114300001D01*
X128254364Y-114526686D01*
X128254366Y-114526697D01*
X128313258Y-114746488D01*
X128313261Y-114746497D01*
X128409431Y-114952732D01*
X128409432Y-114952734D01*
X128539954Y-115139141D01*
X128700858Y-115300045D01*
X128700861Y-115300047D01*
X128887266Y-115430568D01*
X129093504Y-115526739D01*
X129093509Y-115526740D01*
X129093511Y-115526741D01*
X129141129Y-115539500D01*
X129313308Y-115585635D01*
X129475230Y-115599801D01*
X129539998Y-115605468D01*
X129540000Y-115605468D01*
X129540002Y-115605468D01*
X129596673Y-115600509D01*
X129766692Y-115585635D01*
X129986496Y-115526739D01*
X130192734Y-115430568D01*
X130379139Y-115300047D01*
X130540047Y-115139139D01*
X130670568Y-114952734D01*
X130766739Y-114746496D01*
X130825635Y-114526692D01*
X130845468Y-114300000D01*
X130825635Y-114073308D01*
X130766739Y-113853504D01*
X130670568Y-113647266D01*
X130540047Y-113460861D01*
X130540045Y-113460858D01*
X130379141Y-113299954D01*
X130192734Y-113169432D01*
X130192728Y-113169429D01*
X130134725Y-113142382D01*
X130082285Y-113096210D01*
X130063133Y-113029017D01*
X130083348Y-112962135D01*
X130134725Y-112917618D01*
X130192734Y-112890568D01*
X130379139Y-112760047D01*
X130540047Y-112599139D01*
X130670568Y-112412734D01*
X130766739Y-112206496D01*
X130825635Y-111986692D01*
X130845468Y-111760000D01*
X130825635Y-111533308D01*
X130766739Y-111313504D01*
X130670568Y-111107266D01*
X130540047Y-110920861D01*
X130540045Y-110920858D01*
X130379141Y-110759954D01*
X130192734Y-110629432D01*
X130192728Y-110629429D01*
X130134725Y-110602382D01*
X130082285Y-110556210D01*
X130063133Y-110489017D01*
X130083348Y-110422135D01*
X130134725Y-110377618D01*
X130135643Y-110377190D01*
X130192734Y-110350568D01*
X130379139Y-110220047D01*
X130540047Y-110059139D01*
X130670568Y-109872734D01*
X130766739Y-109666496D01*
X130825635Y-109446692D01*
X130845468Y-109220000D01*
X130825635Y-108993308D01*
X130766739Y-108773504D01*
X130670568Y-108567266D01*
X130540047Y-108380861D01*
X130540045Y-108380858D01*
X130379141Y-108219954D01*
X130192734Y-108089432D01*
X130192732Y-108089431D01*
X129986497Y-107993261D01*
X129986488Y-107993258D01*
X129766697Y-107934366D01*
X129766693Y-107934365D01*
X129766692Y-107934365D01*
X129766691Y-107934364D01*
X129766686Y-107934364D01*
X129540002Y-107914532D01*
X129539998Y-107914532D01*
X129313313Y-107934364D01*
X129313302Y-107934366D01*
X129093511Y-107993258D01*
X129093502Y-107993261D01*
X128887267Y-108089431D01*
X128887265Y-108089432D01*
X128700858Y-108219954D01*
X128539954Y-108380858D01*
X128409432Y-108567265D01*
X128409431Y-108567267D01*
X128313261Y-108773502D01*
X128313258Y-108773511D01*
X128254366Y-108993302D01*
X128254364Y-108993313D01*
X128234532Y-109219998D01*
X127757113Y-109219998D01*
X127774534Y-109154981D01*
X127785500Y-109114058D01*
X127785500Y-108955943D01*
X127785500Y-104139996D01*
X128734435Y-104139996D01*
X128734435Y-104140003D01*
X128754630Y-104319249D01*
X128754631Y-104319254D01*
X128814211Y-104489523D01*
X128870621Y-104579298D01*
X128910184Y-104642262D01*
X129037738Y-104769816D01*
X129190478Y-104865789D01*
X129360745Y-104925368D01*
X129360750Y-104925369D01*
X129539996Y-104945565D01*
X129540000Y-104945565D01*
X129540004Y-104945565D01*
X129719249Y-104925369D01*
X129719252Y-104925368D01*
X129719255Y-104925368D01*
X129889522Y-104865789D01*
X130042262Y-104769816D01*
X130042267Y-104769810D01*
X130045097Y-104767555D01*
X130047275Y-104766665D01*
X130048158Y-104766111D01*
X130048255Y-104766265D01*
X130109783Y-104741145D01*
X130122412Y-104740500D01*
X134037588Y-104740500D01*
X134104627Y-104760185D01*
X134114903Y-104767555D01*
X134117736Y-104769814D01*
X134117738Y-104769816D01*
X134270478Y-104865789D01*
X134440745Y-104925368D01*
X134440750Y-104925369D01*
X134619996Y-104945565D01*
X134620000Y-104945565D01*
X134620004Y-104945565D01*
X134799249Y-104925369D01*
X134799252Y-104925368D01*
X134799255Y-104925368D01*
X134969522Y-104865789D01*
X135122262Y-104769816D01*
X135249816Y-104642262D01*
X135345789Y-104489522D01*
X135405368Y-104319255D01*
X135425565Y-104140000D01*
X135405368Y-103960745D01*
X135345789Y-103790478D01*
X135249816Y-103637738D01*
X135122262Y-103510184D01*
X134969523Y-103414211D01*
X134799254Y-103354631D01*
X134799249Y-103354630D01*
X134620004Y-103334435D01*
X134619996Y-103334435D01*
X134440750Y-103354630D01*
X134440745Y-103354631D01*
X134270476Y-103414211D01*
X134117736Y-103510185D01*
X134114903Y-103512445D01*
X134112724Y-103513334D01*
X134111842Y-103513889D01*
X134111744Y-103513734D01*
X134050217Y-103538855D01*
X134037588Y-103539500D01*
X130122412Y-103539500D01*
X130055373Y-103519815D01*
X130045097Y-103512445D01*
X130042263Y-103510185D01*
X130042262Y-103510184D01*
X129985496Y-103474515D01*
X129889523Y-103414211D01*
X129719254Y-103354631D01*
X129719249Y-103354630D01*
X129540004Y-103334435D01*
X129539996Y-103334435D01*
X129360750Y-103354630D01*
X129360745Y-103354631D01*
X129190476Y-103414211D01*
X129037737Y-103510184D01*
X128910184Y-103637737D01*
X128814211Y-103790476D01*
X128754631Y-103960745D01*
X128754630Y-103960750D01*
X128734435Y-104139996D01*
X127785500Y-104139996D01*
X127785500Y-101220638D01*
X127775402Y-101182951D01*
X127744577Y-101067910D01*
X127705369Y-101000000D01*
X127665520Y-100930979D01*
X127553716Y-100819175D01*
X127553715Y-100819174D01*
X127549385Y-100814844D01*
X127549374Y-100814834D01*
X127426917Y-100692377D01*
X127393432Y-100631054D01*
X127390598Y-100604696D01*
X127390598Y-100600003D01*
X127385105Y-100547738D01*
X127370262Y-100406518D01*
X127354223Y-100357155D01*
X137050000Y-100357155D01*
X137050000Y-101055000D01*
X138074722Y-101055000D01*
X138030667Y-101131306D01*
X138000000Y-101245756D01*
X138000000Y-101364244D01*
X138030667Y-101478694D01*
X138074722Y-101555000D01*
X137050000Y-101555000D01*
X137050000Y-102252844D01*
X137056401Y-102312372D01*
X137056403Y-102312379D01*
X137106645Y-102447086D01*
X137106649Y-102447093D01*
X137192809Y-102562187D01*
X137192812Y-102562190D01*
X137307906Y-102648350D01*
X137307913Y-102648354D01*
X137442620Y-102698596D01*
X137442627Y-102698598D01*
X137502155Y-102704999D01*
X137502172Y-102705000D01*
X138200000Y-102705000D01*
X138200000Y-101680277D01*
X138276306Y-101724333D01*
X138390756Y-101755000D01*
X138509244Y-101755000D01*
X138623694Y-101724333D01*
X138700000Y-101680277D01*
X138700000Y-102705000D01*
X139397828Y-102705000D01*
X139397844Y-102704999D01*
X139457372Y-102698598D01*
X139457379Y-102698596D01*
X139592086Y-102648354D01*
X139592093Y-102648350D01*
X139707187Y-102562190D01*
X139707190Y-102562187D01*
X139793350Y-102447093D01*
X139793355Y-102447084D01*
X139822075Y-102370081D01*
X139863945Y-102314147D01*
X139929409Y-102289729D01*
X139997682Y-102304580D01*
X140029484Y-102329428D01*
X140038216Y-102338913D01*
X140038219Y-102338915D01*
X140038222Y-102338918D01*
X140221365Y-102481464D01*
X140221371Y-102481468D01*
X140221374Y-102481470D01*
X140425497Y-102591936D01*
X140539487Y-102631068D01*
X140645015Y-102667297D01*
X140645017Y-102667297D01*
X140645019Y-102667298D01*
X140873951Y-102705500D01*
X140873952Y-102705500D01*
X141106048Y-102705500D01*
X141106049Y-102705500D01*
X141334981Y-102667298D01*
X141554503Y-102591936D01*
X141758626Y-102481470D01*
X141760803Y-102479776D01*
X141858620Y-102403642D01*
X141941784Y-102338913D01*
X142098979Y-102168153D01*
X142225924Y-101973849D01*
X142319157Y-101761300D01*
X142376134Y-101536305D01*
X142376526Y-101531578D01*
X142395300Y-101305006D01*
X142395300Y-101304993D01*
X142376135Y-101073702D01*
X142376133Y-101073691D01*
X142319157Y-100848699D01*
X142225924Y-100636151D01*
X142098983Y-100441852D01*
X142098980Y-100441849D01*
X142098979Y-100441847D01*
X141941784Y-100271087D01*
X141941779Y-100271083D01*
X141941777Y-100271081D01*
X141758634Y-100128535D01*
X141758628Y-100128531D01*
X141554504Y-100018064D01*
X141554495Y-100018061D01*
X141334984Y-99942702D01*
X141129606Y-99908431D01*
X141106049Y-99904500D01*
X140873951Y-99904500D01*
X140850394Y-99908431D01*
X140645015Y-99942702D01*
X140425504Y-100018061D01*
X140425495Y-100018064D01*
X140221371Y-100128531D01*
X140221365Y-100128535D01*
X140038222Y-100271081D01*
X140038215Y-100271087D01*
X140029484Y-100280572D01*
X139969595Y-100316561D01*
X139899757Y-100314458D01*
X139842143Y-100274932D01*
X139822075Y-100239918D01*
X139793355Y-100162915D01*
X139793350Y-100162906D01*
X139707190Y-100047812D01*
X139707187Y-100047809D01*
X139592093Y-99961649D01*
X139592086Y-99961645D01*
X139457379Y-99911403D01*
X139457372Y-99911401D01*
X139397844Y-99905000D01*
X138700000Y-99905000D01*
X138700000Y-100929722D01*
X138623694Y-100885667D01*
X138509244Y-100855000D01*
X138390756Y-100855000D01*
X138276306Y-100885667D01*
X138200000Y-100929722D01*
X138200000Y-99905000D01*
X137502155Y-99905000D01*
X137442627Y-99911401D01*
X137442620Y-99911403D01*
X137307913Y-99961645D01*
X137307906Y-99961649D01*
X137192812Y-100047809D01*
X137192809Y-100047812D01*
X137106649Y-100162906D01*
X137106645Y-100162913D01*
X137056403Y-100297620D01*
X137056401Y-100297627D01*
X137050000Y-100357155D01*
X127354223Y-100357155D01*
X127310144Y-100221492D01*
X127310143Y-100221491D01*
X127310143Y-100221489D01*
X127310142Y-100221488D01*
X127256473Y-100128531D01*
X127212870Y-100053008D01*
X127130610Y-99961649D01*
X127082697Y-99908435D01*
X127082694Y-99908433D01*
X127082693Y-99908432D01*
X127082692Y-99908431D01*
X126959999Y-99819289D01*
X126925297Y-99794076D01*
X126788848Y-99733326D01*
X126747571Y-99714949D01*
X126747569Y-99714948D01*
X126557274Y-99674500D01*
X126362726Y-99674500D01*
X126172430Y-99714948D01*
X126172427Y-99714949D01*
X126010434Y-99787072D01*
X125941184Y-99796356D01*
X125909566Y-99787072D01*
X125747572Y-99714949D01*
X125747569Y-99714948D01*
X125557274Y-99674500D01*
X125362726Y-99674500D01*
X125172430Y-99714948D01*
X125172427Y-99714949D01*
X125010434Y-99787072D01*
X124941184Y-99796356D01*
X124909566Y-99787072D01*
X124747572Y-99714949D01*
X124747569Y-99714948D01*
X124557274Y-99674500D01*
X124362726Y-99674500D01*
X124172431Y-99714948D01*
X123994702Y-99794076D01*
X123837305Y-99908433D01*
X123837302Y-99908435D01*
X123707129Y-100053009D01*
X123609857Y-100221488D01*
X123609856Y-100221489D01*
X123549738Y-100406516D01*
X123529402Y-100599999D01*
X123549738Y-100793483D01*
X123549740Y-100793488D01*
X123579848Y-100886154D01*
X123581843Y-100955995D01*
X123578099Y-100967804D01*
X123540908Y-101067517D01*
X123534501Y-101127116D01*
X123534500Y-101127135D01*
X123534500Y-102072870D01*
X123534501Y-102072876D01*
X123540908Y-102132483D01*
X123591202Y-102267328D01*
X123591206Y-102267335D01*
X123677452Y-102382544D01*
X123677455Y-102382547D01*
X123792664Y-102468793D01*
X123792671Y-102468797D01*
X123927517Y-102519091D01*
X123927516Y-102519091D01*
X123933293Y-102519712D01*
X123987127Y-102525500D01*
X124932872Y-102525499D01*
X124992483Y-102519091D01*
X125084530Y-102484759D01*
X125154218Y-102479776D01*
X125166039Y-102483678D01*
X125166246Y-102483042D01*
X125172426Y-102485049D01*
X125172429Y-102485051D01*
X125362726Y-102525500D01*
X125557274Y-102525500D01*
X125747566Y-102485052D01*
X125747565Y-102485052D01*
X125747571Y-102485051D01*
X125909569Y-102412925D01*
X125978815Y-102403642D01*
X126010425Y-102412922D01*
X126172429Y-102485051D01*
X126172432Y-102485051D01*
X126172433Y-102485052D01*
X126362726Y-102525500D01*
X126460500Y-102525500D01*
X126527539Y-102545185D01*
X126573294Y-102597989D01*
X126584500Y-102649500D01*
X126584500Y-108734902D01*
X126564815Y-108801941D01*
X126548181Y-108822583D01*
X123429428Y-111941335D01*
X123368105Y-111974820D01*
X123298413Y-111969836D01*
X123242480Y-111927964D01*
X123218063Y-111862500D01*
X123218218Y-111842857D01*
X123225468Y-111760000D01*
X123205635Y-111533308D01*
X123146739Y-111313504D01*
X123050568Y-111107266D01*
X122920047Y-110920861D01*
X122920045Y-110920858D01*
X122759143Y-110759956D01*
X122733912Y-110742289D01*
X122690287Y-110687712D01*
X122683095Y-110618213D01*
X122714617Y-110555859D01*
X122774847Y-110520445D01*
X122791781Y-110517424D01*
X122827380Y-110513596D01*
X122962086Y-110463354D01*
X122962093Y-110463350D01*
X123077187Y-110377190D01*
X123077190Y-110377187D01*
X123163350Y-110262093D01*
X123163354Y-110262086D01*
X123213596Y-110127379D01*
X123213598Y-110127372D01*
X123219999Y-110067844D01*
X123220000Y-110067827D01*
X123220000Y-109470000D01*
X122235686Y-109470000D01*
X122240080Y-109465606D01*
X122292741Y-109374394D01*
X122320000Y-109272661D01*
X122320000Y-109167339D01*
X122292741Y-109065606D01*
X122240080Y-108974394D01*
X122235686Y-108970000D01*
X123220000Y-108970000D01*
X123220000Y-108372172D01*
X123219999Y-108372155D01*
X123213598Y-108312627D01*
X123213596Y-108312620D01*
X123163354Y-108177913D01*
X123163350Y-108177906D01*
X123077190Y-108062812D01*
X123077187Y-108062809D01*
X122962093Y-107976649D01*
X122962086Y-107976645D01*
X122827379Y-107926403D01*
X122827372Y-107926401D01*
X122767844Y-107920000D01*
X122170000Y-107920000D01*
X122170000Y-108904314D01*
X122165606Y-108899920D01*
X122074394Y-108847259D01*
X121972661Y-108820000D01*
X121867339Y-108820000D01*
X121765606Y-108847259D01*
X121674394Y-108899920D01*
X121670000Y-108904314D01*
X121670000Y-107920000D01*
X121072155Y-107920000D01*
X121012627Y-107926401D01*
X121012620Y-107926403D01*
X120877913Y-107976645D01*
X120877906Y-107976649D01*
X120762812Y-108062809D01*
X120762809Y-108062812D01*
X120676649Y-108177906D01*
X120676645Y-108177913D01*
X120626403Y-108312620D01*
X120626401Y-108312627D01*
X120620000Y-108372155D01*
X120620000Y-108970000D01*
X121604314Y-108970000D01*
X121599920Y-108974394D01*
X121547259Y-109065606D01*
X121520000Y-109167339D01*
X121520000Y-109272661D01*
X121547259Y-109374394D01*
X121599920Y-109465606D01*
X121604314Y-109470000D01*
X120620000Y-109470000D01*
X120620000Y-110067844D01*
X120626401Y-110127372D01*
X120626403Y-110127379D01*
X120676645Y-110262086D01*
X120676649Y-110262093D01*
X120762809Y-110377187D01*
X120762812Y-110377190D01*
X120877906Y-110463350D01*
X120877913Y-110463354D01*
X121012620Y-110513596D01*
X121012627Y-110513598D01*
X121048218Y-110517425D01*
X121112769Y-110544163D01*
X121152618Y-110601555D01*
X121155111Y-110671380D01*
X121119459Y-110731469D01*
X121106088Y-110742287D01*
X121080861Y-110759951D01*
X120919954Y-110920858D01*
X120789432Y-111107265D01*
X120789431Y-111107267D01*
X120693261Y-111313502D01*
X120693258Y-111313511D01*
X120634366Y-111533302D01*
X120634364Y-111533313D01*
X120614532Y-111759998D01*
X104140000Y-111759998D01*
X104140000Y-100357155D01*
X111650000Y-100357155D01*
X111650000Y-101055000D01*
X112674722Y-101055000D01*
X112630667Y-101131306D01*
X112600000Y-101245756D01*
X112600000Y-101364244D01*
X112630667Y-101478694D01*
X112674722Y-101555000D01*
X111650000Y-101555000D01*
X111650000Y-102252844D01*
X111656401Y-102312372D01*
X111656403Y-102312379D01*
X111706645Y-102447086D01*
X111706649Y-102447093D01*
X111792809Y-102562187D01*
X111792812Y-102562190D01*
X111907906Y-102648350D01*
X111907913Y-102648354D01*
X112042620Y-102698596D01*
X112042627Y-102698598D01*
X112102155Y-102704999D01*
X112102172Y-102705000D01*
X112800000Y-102705000D01*
X112800000Y-101680277D01*
X112876306Y-101724333D01*
X112990756Y-101755000D01*
X113109244Y-101755000D01*
X113223694Y-101724333D01*
X113300000Y-101680277D01*
X113300000Y-102705000D01*
X113997828Y-102705000D01*
X113997844Y-102704999D01*
X114057372Y-102698598D01*
X114057379Y-102698596D01*
X114192086Y-102648354D01*
X114192093Y-102648350D01*
X114307187Y-102562190D01*
X114307190Y-102562187D01*
X114393350Y-102447093D01*
X114393355Y-102447084D01*
X114422075Y-102370081D01*
X114463945Y-102314147D01*
X114529409Y-102289729D01*
X114597682Y-102304580D01*
X114629484Y-102329428D01*
X114638216Y-102338913D01*
X114638219Y-102338915D01*
X114638222Y-102338918D01*
X114821365Y-102481464D01*
X114821371Y-102481468D01*
X114821374Y-102481470D01*
X115025497Y-102591936D01*
X115139487Y-102631068D01*
X115245015Y-102667297D01*
X115245017Y-102667297D01*
X115245019Y-102667298D01*
X115473951Y-102705500D01*
X115473952Y-102705500D01*
X115706048Y-102705500D01*
X115706049Y-102705500D01*
X115934981Y-102667298D01*
X116154503Y-102591936D01*
X116358626Y-102481470D01*
X116360803Y-102479776D01*
X116458620Y-102403642D01*
X116541784Y-102338913D01*
X116698979Y-102168153D01*
X116825924Y-101973849D01*
X116919157Y-101761300D01*
X116976134Y-101536305D01*
X116976526Y-101531578D01*
X116995300Y-101305006D01*
X116995300Y-101304993D01*
X116976135Y-101073702D01*
X116976133Y-101073691D01*
X116957471Y-100999996D01*
X117574435Y-100999996D01*
X117574435Y-101000001D01*
X117594630Y-101179249D01*
X117594631Y-101179254D01*
X117654211Y-101349523D01*
X117750185Y-101502263D01*
X117752445Y-101505097D01*
X117753334Y-101507275D01*
X117753889Y-101508158D01*
X117753734Y-101508255D01*
X117778855Y-101569783D01*
X117779500Y-101582412D01*
X117779500Y-104323330D01*
X117779499Y-104323348D01*
X117779499Y-104489054D01*
X117779498Y-104489054D01*
X117815826Y-104624632D01*
X117820423Y-104641785D01*
X117842073Y-104679283D01*
X117894341Y-104769815D01*
X117899479Y-104778714D01*
X117899481Y-104778717D01*
X118018349Y-104897585D01*
X118018355Y-104897590D01*
X118549298Y-105428533D01*
X118582783Y-105489856D01*
X118584837Y-105502330D01*
X118594630Y-105589249D01*
X118654210Y-105759521D01*
X118750184Y-105912262D01*
X118877738Y-106039816D01*
X119030478Y-106135789D01*
X119200745Y-106195368D01*
X119200750Y-106195369D01*
X119379996Y-106215565D01*
X119380000Y-106215565D01*
X119380004Y-106215565D01*
X119559249Y-106195369D01*
X119559252Y-106195368D01*
X119559255Y-106195368D01*
X119729522Y-106135789D01*
X119882262Y-106039816D01*
X120009816Y-105912262D01*
X120105789Y-105759522D01*
X120165368Y-105589255D01*
X120175162Y-105502330D01*
X120185565Y-105410003D01*
X120185565Y-105409996D01*
X120165369Y-105230750D01*
X120165368Y-105230745D01*
X120105788Y-105060476D01*
X120020894Y-104925369D01*
X120009816Y-104907738D01*
X119882262Y-104780184D01*
X119879923Y-104778714D01*
X119729521Y-104684210D01*
X119559249Y-104624630D01*
X119472330Y-104614837D01*
X119407916Y-104587770D01*
X119398533Y-104579298D01*
X119016819Y-104197583D01*
X118983334Y-104136260D01*
X118980500Y-104109902D01*
X118980500Y-103753062D01*
X119000185Y-103686023D01*
X119052989Y-103640268D01*
X119122147Y-103630324D01*
X119145448Y-103636018D01*
X119200745Y-103655368D01*
X119200748Y-103655368D01*
X119200750Y-103655369D01*
X119379996Y-103675565D01*
X119380000Y-103675565D01*
X119380004Y-103675565D01*
X119559249Y-103655369D01*
X119559252Y-103655368D01*
X119559255Y-103655368D01*
X119729522Y-103595789D01*
X119882262Y-103499816D01*
X120009816Y-103372262D01*
X120105789Y-103219522D01*
X120165368Y-103049255D01*
X120185565Y-102870000D01*
X120167030Y-102705500D01*
X120165369Y-102690750D01*
X120165368Y-102690745D01*
X120105789Y-102520478D01*
X120104917Y-102519091D01*
X120059672Y-102447084D01*
X120009816Y-102367738D01*
X120009814Y-102367736D01*
X120009813Y-102367734D01*
X120007550Y-102364896D01*
X120006659Y-102362715D01*
X120006111Y-102361842D01*
X120006264Y-102361745D01*
X119981144Y-102300209D01*
X119980500Y-102287587D01*
X119980500Y-101632412D01*
X120000185Y-101565373D01*
X120007555Y-101555097D01*
X120009810Y-101552267D01*
X120009816Y-101552262D01*
X120105789Y-101399522D01*
X120165368Y-101229255D01*
X120171002Y-101179254D01*
X120185565Y-101050003D01*
X120185565Y-101049996D01*
X120165369Y-100870750D01*
X120165368Y-100870745D01*
X120145804Y-100814834D01*
X120105789Y-100700478D01*
X120009816Y-100547738D01*
X119882262Y-100420184D01*
X119802688Y-100370184D01*
X119729523Y-100324211D01*
X119559254Y-100264631D01*
X119559249Y-100264630D01*
X119380004Y-100244435D01*
X119379996Y-100244435D01*
X119200750Y-100264630D01*
X119200737Y-100264633D01*
X119030480Y-100324209D01*
X118985757Y-100352310D01*
X118918520Y-100371309D01*
X118853815Y-100352309D01*
X118729523Y-100274211D01*
X118559254Y-100214631D01*
X118559249Y-100214630D01*
X118380004Y-100194435D01*
X118379996Y-100194435D01*
X118200750Y-100214630D01*
X118200745Y-100214631D01*
X118030476Y-100274211D01*
X117877737Y-100370184D01*
X117750184Y-100497737D01*
X117654211Y-100650476D01*
X117594631Y-100820745D01*
X117594630Y-100820750D01*
X117574435Y-100999996D01*
X116957471Y-100999996D01*
X116919157Y-100848699D01*
X116825924Y-100636151D01*
X116698983Y-100441852D01*
X116698980Y-100441849D01*
X116698979Y-100441847D01*
X116541784Y-100271087D01*
X116541779Y-100271083D01*
X116541777Y-100271081D01*
X116358634Y-100128535D01*
X116358628Y-100128531D01*
X116154504Y-100018064D01*
X116154495Y-100018061D01*
X115934984Y-99942702D01*
X115729606Y-99908431D01*
X115706049Y-99904500D01*
X115473951Y-99904500D01*
X115450394Y-99908431D01*
X115245015Y-99942702D01*
X115025504Y-100018061D01*
X115025495Y-100018064D01*
X114821371Y-100128531D01*
X114821365Y-100128535D01*
X114638222Y-100271081D01*
X114638215Y-100271087D01*
X114629484Y-100280572D01*
X114569595Y-100316561D01*
X114499757Y-100314458D01*
X114442143Y-100274932D01*
X114422075Y-100239918D01*
X114393355Y-100162915D01*
X114393350Y-100162906D01*
X114307190Y-100047812D01*
X114307187Y-100047809D01*
X114192093Y-99961649D01*
X114192086Y-99961645D01*
X114057379Y-99911403D01*
X114057372Y-99911401D01*
X113997844Y-99905000D01*
X113300000Y-99905000D01*
X113300000Y-100929722D01*
X113223694Y-100885667D01*
X113109244Y-100855000D01*
X112990756Y-100855000D01*
X112876306Y-100885667D01*
X112800000Y-100929722D01*
X112800000Y-99905000D01*
X112102155Y-99905000D01*
X112042627Y-99911401D01*
X112042620Y-99911403D01*
X111907913Y-99961645D01*
X111907906Y-99961649D01*
X111792812Y-100047809D01*
X111792809Y-100047812D01*
X111706649Y-100162906D01*
X111706645Y-100162913D01*
X111656403Y-100297620D01*
X111656401Y-100297627D01*
X111650000Y-100357155D01*
X104140000Y-100357155D01*
X104140000Y-92709999D01*
X110554357Y-92709999D01*
X110554357Y-92710000D01*
X110574884Y-92931535D01*
X110574885Y-92931537D01*
X110635769Y-93145523D01*
X110635775Y-93145538D01*
X110734938Y-93344683D01*
X110734943Y-93344691D01*
X110869020Y-93522238D01*
X111033437Y-93672123D01*
X111033439Y-93672125D01*
X111222595Y-93789245D01*
X111222596Y-93789245D01*
X111222599Y-93789247D01*
X111430060Y-93869618D01*
X111648757Y-93910500D01*
X111648759Y-93910500D01*
X111871241Y-93910500D01*
X111871243Y-93910500D01*
X112089940Y-93869618D01*
X112297401Y-93789247D01*
X112486562Y-93672124D01*
X112650981Y-93522236D01*
X112785058Y-93344689D01*
X112884229Y-93145528D01*
X112945115Y-92931536D01*
X112965643Y-92710000D01*
X112965643Y-92709999D01*
X118174357Y-92709999D01*
X118174357Y-92710000D01*
X118194884Y-92931535D01*
X118194885Y-92931537D01*
X118255769Y-93145523D01*
X118255775Y-93145538D01*
X118354938Y-93344683D01*
X118354943Y-93344691D01*
X118489020Y-93522238D01*
X118653437Y-93672123D01*
X118653439Y-93672125D01*
X118842595Y-93789245D01*
X118842596Y-93789245D01*
X118842599Y-93789247D01*
X119050060Y-93869618D01*
X119268757Y-93910500D01*
X119268759Y-93910500D01*
X119491241Y-93910500D01*
X119491243Y-93910500D01*
X119709940Y-93869618D01*
X119917401Y-93789247D01*
X120106562Y-93672124D01*
X120270981Y-93522236D01*
X120405058Y-93344689D01*
X120504229Y-93145528D01*
X120565115Y-92931536D01*
X120585643Y-92710000D01*
X120585643Y-92709999D01*
X125794357Y-92709999D01*
X125794357Y-92710000D01*
X125814884Y-92931535D01*
X125814885Y-92931537D01*
X125875769Y-93145523D01*
X125875775Y-93145538D01*
X125974938Y-93344683D01*
X125974943Y-93344691D01*
X126109020Y-93522238D01*
X126273437Y-93672123D01*
X126273439Y-93672125D01*
X126462595Y-93789245D01*
X126462596Y-93789245D01*
X126462599Y-93789247D01*
X126670060Y-93869618D01*
X126888757Y-93910500D01*
X126888759Y-93910500D01*
X127111241Y-93910500D01*
X127111243Y-93910500D01*
X127329940Y-93869618D01*
X127537401Y-93789247D01*
X127726562Y-93672124D01*
X127890981Y-93522236D01*
X128025058Y-93344689D01*
X128124229Y-93145528D01*
X128185115Y-92931536D01*
X128205643Y-92710000D01*
X128205643Y-92709999D01*
X143574357Y-92709999D01*
X143574357Y-92710000D01*
X143594884Y-92931535D01*
X143594885Y-92931537D01*
X143655769Y-93145523D01*
X143655775Y-93145538D01*
X143754938Y-93344683D01*
X143754943Y-93344691D01*
X143889020Y-93522238D01*
X144053437Y-93672123D01*
X144053439Y-93672125D01*
X144242595Y-93789245D01*
X144242596Y-93789245D01*
X144242599Y-93789247D01*
X144450060Y-93869618D01*
X144668757Y-93910500D01*
X144668759Y-93910500D01*
X144891241Y-93910500D01*
X144891243Y-93910500D01*
X145109940Y-93869618D01*
X145317401Y-93789247D01*
X145506562Y-93672124D01*
X145670981Y-93522236D01*
X145805058Y-93344689D01*
X145904229Y-93145528D01*
X145965115Y-92931536D01*
X145985643Y-92710000D01*
X145965115Y-92488464D01*
X145904229Y-92274472D01*
X145904224Y-92274461D01*
X145805061Y-92075316D01*
X145805056Y-92075308D01*
X145670979Y-91897761D01*
X145506562Y-91747876D01*
X145506560Y-91747874D01*
X145317404Y-91630754D01*
X145317398Y-91630752D01*
X145109940Y-91550382D01*
X144891243Y-91509500D01*
X144668757Y-91509500D01*
X144450060Y-91550382D01*
X144318864Y-91601207D01*
X144242601Y-91630752D01*
X144242595Y-91630754D01*
X144053439Y-91747874D01*
X144053437Y-91747876D01*
X143889020Y-91897761D01*
X143754943Y-92075308D01*
X143754938Y-92075316D01*
X143655775Y-92274461D01*
X143655769Y-92274476D01*
X143594885Y-92488462D01*
X143594884Y-92488464D01*
X143574357Y-92709999D01*
X128205643Y-92709999D01*
X128185115Y-92488464D01*
X128124229Y-92274472D01*
X128124224Y-92274461D01*
X128025061Y-92075316D01*
X128025056Y-92075308D01*
X127890979Y-91897761D01*
X127726562Y-91747876D01*
X127726560Y-91747874D01*
X127537404Y-91630754D01*
X127537398Y-91630752D01*
X127329940Y-91550382D01*
X127111243Y-91509500D01*
X126888757Y-91509500D01*
X126670060Y-91550382D01*
X126538864Y-91601207D01*
X126462601Y-91630752D01*
X126462595Y-91630754D01*
X126273439Y-91747874D01*
X126273437Y-91747876D01*
X126109020Y-91897761D01*
X125974943Y-92075308D01*
X125974938Y-92075316D01*
X125875775Y-92274461D01*
X125875769Y-92274476D01*
X125814885Y-92488462D01*
X125814884Y-92488464D01*
X125794357Y-92709999D01*
X120585643Y-92709999D01*
X120565115Y-92488464D01*
X120504229Y-92274472D01*
X120504224Y-92274461D01*
X120405061Y-92075316D01*
X120405056Y-92075308D01*
X120270979Y-91897761D01*
X120106562Y-91747876D01*
X120106560Y-91747874D01*
X119917404Y-91630754D01*
X119917398Y-91630752D01*
X119709940Y-91550382D01*
X119491243Y-91509500D01*
X119268757Y-91509500D01*
X119050060Y-91550382D01*
X118918864Y-91601207D01*
X118842601Y-91630752D01*
X118842595Y-91630754D01*
X118653439Y-91747874D01*
X118653437Y-91747876D01*
X118489020Y-91897761D01*
X118354943Y-92075308D01*
X118354938Y-92075316D01*
X118255775Y-92274461D01*
X118255769Y-92274476D01*
X118194885Y-92488462D01*
X118194884Y-92488464D01*
X118174357Y-92709999D01*
X112965643Y-92709999D01*
X112945115Y-92488464D01*
X112884229Y-92274472D01*
X112884224Y-92274461D01*
X112785061Y-92075316D01*
X112785056Y-92075308D01*
X112650979Y-91897761D01*
X112486562Y-91747876D01*
X112486560Y-91747874D01*
X112297404Y-91630754D01*
X112297398Y-91630752D01*
X112089940Y-91550382D01*
X111871243Y-91509500D01*
X111648757Y-91509500D01*
X111430060Y-91550382D01*
X111298864Y-91601207D01*
X111222601Y-91630752D01*
X111222595Y-91630754D01*
X111033439Y-91747874D01*
X111033437Y-91747876D01*
X110869020Y-91897761D01*
X110734943Y-92075308D01*
X110734938Y-92075316D01*
X110635775Y-92274461D01*
X110635769Y-92274476D01*
X110574885Y-92488462D01*
X110574884Y-92488464D01*
X110554357Y-92709999D01*
X104140000Y-92709999D01*
X104140000Y-88102135D01*
X133594500Y-88102135D01*
X133594500Y-89697870D01*
X133594501Y-89697876D01*
X133600908Y-89757483D01*
X133651202Y-89892328D01*
X133651206Y-89892335D01*
X133737452Y-90007544D01*
X133737455Y-90007547D01*
X133852664Y-90093793D01*
X133852671Y-90093797D01*
X133987517Y-90144091D01*
X133987516Y-90144091D01*
X133994444Y-90144835D01*
X134047127Y-90150500D01*
X135192872Y-90150499D01*
X135252483Y-90144091D01*
X135387331Y-90093796D01*
X135388430Y-90092972D01*
X135389717Y-90092492D01*
X135395112Y-90089547D01*
X135395535Y-90090322D01*
X135453887Y-90068552D01*
X135510198Y-90077673D01*
X135590873Y-90111091D01*
X135756777Y-90144091D01*
X135788992Y-90150499D01*
X135788996Y-90150500D01*
X135788997Y-90150500D01*
X135991004Y-90150500D01*
X135991005Y-90150499D01*
X136189127Y-90111091D01*
X136375756Y-90033786D01*
X136456110Y-89980094D01*
X136522786Y-89959217D01*
X136590166Y-89977701D01*
X136593865Y-89980078D01*
X136674244Y-90033786D01*
X136860873Y-90111091D01*
X137026777Y-90144091D01*
X137058992Y-90150499D01*
X137058996Y-90150500D01*
X137058997Y-90150500D01*
X137261004Y-90150500D01*
X137261005Y-90150499D01*
X137459127Y-90111091D01*
X137645756Y-90033786D01*
X137813718Y-89921558D01*
X137956558Y-89778718D01*
X138068786Y-89610756D01*
X138146091Y-89424127D01*
X138185500Y-89226003D01*
X138185500Y-88573997D01*
X138146091Y-88375873D01*
X138068786Y-88189244D01*
X138068784Y-88189241D01*
X138068782Y-88189237D01*
X137956558Y-88021281D01*
X137813718Y-87878441D01*
X137645762Y-87766217D01*
X137645752Y-87766212D01*
X137459127Y-87688909D01*
X137459119Y-87688907D01*
X137261007Y-87649500D01*
X137261003Y-87649500D01*
X137058997Y-87649500D01*
X137058992Y-87649500D01*
X136860880Y-87688907D01*
X136860872Y-87688909D01*
X136674244Y-87766213D01*
X136593891Y-87819904D01*
X136527213Y-87840782D01*
X136459833Y-87822297D01*
X136456109Y-87819904D01*
X136375755Y-87766213D01*
X136189127Y-87688909D01*
X136189119Y-87688907D01*
X135991007Y-87649500D01*
X135991003Y-87649500D01*
X135788997Y-87649500D01*
X135788992Y-87649500D01*
X135590880Y-87688907D01*
X135590868Y-87688910D01*
X135510198Y-87722325D01*
X135440729Y-87729794D01*
X135395342Y-87710036D01*
X135395114Y-87710454D01*
X135390447Y-87707905D01*
X135388432Y-87707028D01*
X135387331Y-87706204D01*
X135387330Y-87706203D01*
X135387328Y-87706202D01*
X135252482Y-87655908D01*
X135252483Y-87655908D01*
X135192883Y-87649501D01*
X135192881Y-87649500D01*
X135192873Y-87649500D01*
X135192864Y-87649500D01*
X134047129Y-87649500D01*
X134047123Y-87649501D01*
X133987516Y-87655908D01*
X133852671Y-87706202D01*
X133852664Y-87706206D01*
X133737455Y-87792452D01*
X133737452Y-87792455D01*
X133651206Y-87907664D01*
X133651202Y-87907671D01*
X133600908Y-88042517D01*
X133594501Y-88102116D01*
X133594500Y-88102135D01*
X104140000Y-88102135D01*
X104140000Y-85089999D01*
X110554357Y-85089999D01*
X110554357Y-85090000D01*
X110574884Y-85311535D01*
X110574885Y-85311537D01*
X110635769Y-85525523D01*
X110635775Y-85525538D01*
X110734938Y-85724683D01*
X110734943Y-85724691D01*
X110869020Y-85902238D01*
X111033437Y-86052123D01*
X111033439Y-86052125D01*
X111222595Y-86169245D01*
X111222596Y-86169245D01*
X111222599Y-86169247D01*
X111430060Y-86249618D01*
X111648757Y-86290500D01*
X111648759Y-86290500D01*
X111871241Y-86290500D01*
X111871243Y-86290500D01*
X112089940Y-86249618D01*
X112297401Y-86169247D01*
X112486562Y-86052124D01*
X112650981Y-85902236D01*
X112785058Y-85724689D01*
X112884229Y-85525528D01*
X112945115Y-85311536D01*
X112965643Y-85090000D01*
X112965643Y-85089999D01*
X118174357Y-85089999D01*
X118174357Y-85090000D01*
X118194884Y-85311535D01*
X118194885Y-85311537D01*
X118255769Y-85525523D01*
X118255775Y-85525538D01*
X118354938Y-85724683D01*
X118354943Y-85724691D01*
X118489020Y-85902238D01*
X118653437Y-86052123D01*
X118653439Y-86052125D01*
X118842595Y-86169245D01*
X118842596Y-86169245D01*
X118842599Y-86169247D01*
X119050060Y-86249618D01*
X119268757Y-86290500D01*
X119268759Y-86290500D01*
X119491241Y-86290500D01*
X119491243Y-86290500D01*
X119709940Y-86249618D01*
X119917401Y-86169247D01*
X120106562Y-86052124D01*
X120270981Y-85902236D01*
X120405058Y-85724689D01*
X120504229Y-85525528D01*
X120565115Y-85311536D01*
X120585643Y-85090000D01*
X120585643Y-85089999D01*
X125794357Y-85089999D01*
X125794357Y-85090000D01*
X125814884Y-85311535D01*
X125814885Y-85311537D01*
X125875769Y-85525523D01*
X125875775Y-85525538D01*
X125974938Y-85724683D01*
X125974943Y-85724691D01*
X126109020Y-85902238D01*
X126273437Y-86052123D01*
X126273439Y-86052125D01*
X126462595Y-86169245D01*
X126462596Y-86169245D01*
X126462599Y-86169247D01*
X126670060Y-86249618D01*
X126888757Y-86290500D01*
X126888759Y-86290500D01*
X127111241Y-86290500D01*
X127111243Y-86290500D01*
X127329940Y-86249618D01*
X127537401Y-86169247D01*
X127726562Y-86052124D01*
X127890981Y-85902236D01*
X128025058Y-85724689D01*
X128124229Y-85525528D01*
X128185115Y-85311536D01*
X128205643Y-85090000D01*
X128205643Y-85089999D01*
X143574357Y-85089999D01*
X143574357Y-85090000D01*
X143594884Y-85311535D01*
X143594885Y-85311537D01*
X143655769Y-85525523D01*
X143655775Y-85525538D01*
X143754938Y-85724683D01*
X143754943Y-85724691D01*
X143889020Y-85902238D01*
X144053437Y-86052123D01*
X144053439Y-86052125D01*
X144242595Y-86169245D01*
X144242596Y-86169245D01*
X144242599Y-86169247D01*
X144450060Y-86249618D01*
X144668757Y-86290500D01*
X144668759Y-86290500D01*
X144891241Y-86290500D01*
X144891243Y-86290500D01*
X145109940Y-86249618D01*
X145317401Y-86169247D01*
X145506562Y-86052124D01*
X145670981Y-85902236D01*
X145805058Y-85724689D01*
X145904229Y-85525528D01*
X145965115Y-85311536D01*
X145985643Y-85090000D01*
X145965115Y-84868464D01*
X145904229Y-84654472D01*
X145904224Y-84654461D01*
X145805061Y-84455316D01*
X145805056Y-84455308D01*
X145670979Y-84277761D01*
X145506562Y-84127876D01*
X145506560Y-84127874D01*
X145317404Y-84010754D01*
X145317398Y-84010752D01*
X145109940Y-83930382D01*
X144891243Y-83889500D01*
X144668757Y-83889500D01*
X144450060Y-83930382D01*
X144318864Y-83981207D01*
X144242601Y-84010752D01*
X144242595Y-84010754D01*
X144053439Y-84127874D01*
X144053437Y-84127876D01*
X143889020Y-84277761D01*
X143754943Y-84455308D01*
X143754938Y-84455316D01*
X143655775Y-84654461D01*
X143655769Y-84654476D01*
X143594885Y-84868462D01*
X143594884Y-84868464D01*
X143574357Y-85089999D01*
X128205643Y-85089999D01*
X128185115Y-84868464D01*
X128124229Y-84654472D01*
X128124224Y-84654461D01*
X128025061Y-84455316D01*
X128025056Y-84455308D01*
X127890979Y-84277761D01*
X127726562Y-84127876D01*
X127726560Y-84127874D01*
X127537404Y-84010754D01*
X127537398Y-84010752D01*
X127329940Y-83930382D01*
X127111243Y-83889500D01*
X126888757Y-83889500D01*
X126670060Y-83930382D01*
X126538864Y-83981207D01*
X126462601Y-84010752D01*
X126462595Y-84010754D01*
X126273439Y-84127874D01*
X126273437Y-84127876D01*
X126109020Y-84277761D01*
X125974943Y-84455308D01*
X125974938Y-84455316D01*
X125875775Y-84654461D01*
X125875769Y-84654476D01*
X125814885Y-84868462D01*
X125814884Y-84868464D01*
X125794357Y-85089999D01*
X120585643Y-85089999D01*
X120565115Y-84868464D01*
X120504229Y-84654472D01*
X120504224Y-84654461D01*
X120405061Y-84455316D01*
X120405056Y-84455308D01*
X120270979Y-84277761D01*
X120106562Y-84127876D01*
X120106560Y-84127874D01*
X119917404Y-84010754D01*
X119917398Y-84010752D01*
X119709940Y-83930382D01*
X119491243Y-83889500D01*
X119268757Y-83889500D01*
X119050060Y-83930382D01*
X118918864Y-83981207D01*
X118842601Y-84010752D01*
X118842595Y-84010754D01*
X118653439Y-84127874D01*
X118653437Y-84127876D01*
X118489020Y-84277761D01*
X118354943Y-84455308D01*
X118354938Y-84455316D01*
X118255775Y-84654461D01*
X118255769Y-84654476D01*
X118194885Y-84868462D01*
X118194884Y-84868464D01*
X118174357Y-85089999D01*
X112965643Y-85089999D01*
X112945115Y-84868464D01*
X112884229Y-84654472D01*
X112884224Y-84654461D01*
X112785061Y-84455316D01*
X112785056Y-84455308D01*
X112650979Y-84277761D01*
X112486562Y-84127876D01*
X112486560Y-84127874D01*
X112297404Y-84010754D01*
X112297398Y-84010752D01*
X112089940Y-83930382D01*
X111871243Y-83889500D01*
X111648757Y-83889500D01*
X111430060Y-83930382D01*
X111298864Y-83981207D01*
X111222601Y-84010752D01*
X111222595Y-84010754D01*
X111033439Y-84127874D01*
X111033437Y-84127876D01*
X110869020Y-84277761D01*
X110734943Y-84455308D01*
X110734938Y-84455316D01*
X110635775Y-84654461D01*
X110635769Y-84654476D01*
X110574885Y-84868462D01*
X110574884Y-84868464D01*
X110554357Y-85089999D01*
X104140000Y-85089999D01*
X104140000Y-78864000D01*
X104159685Y-78796961D01*
X104212489Y-78751206D01*
X104264000Y-78740000D01*
X149736000Y-78740000D01*
X149803039Y-78759685D01*
G37*
%TD.AperFunction*%
%TD*%
M02*
